<svg clip-rule="evenodd" fill-rule="evenodd" stroke-linecap="round" stroke-linejoin="round" stroke-miterlimit="1.5" viewBox="0 0 1200 1200" xmlns="http://www.w3.org/2000/svg"><g fill="none"><path d="m0 0h1200v1200h-1200z"/><path d="m697.263 661.24c87.525-86.588 28.079-223.177-89.291-228.56" stroke="#5e81ac" stroke-width="18.75" transform="matrix(2.72579 0 0 2.72579 -1051.03 -945.408)"/><path d="m724.87 612.114c7.997-15.269 9.945-27.119 11.13-36.99 2.008-16.727-.958-54.778-29.281-66.817-38.361-16.305-54.196-73.177-100.231-75.728-17.984-.997-39.08 4.819-59.988 16.579" stroke="#81a1c1" stroke-width="18.75" transform="matrix(2.72579 0 0 2.72579 -1051.03 -945.408)"/><path d="m603.777 435.956c-52.159-3.261-131.213 43.718-131.456 132.366-.179 65.395 55.805 133.999 131.456 133.118 33.459-.39 69.565-13.109 93.486-40.2 26.574-30.094 35.628-67.878 31.417-90-4.28-22.478-18.231-36.733-35.775-45.132-40.055-19.174-49.014-87.645-89.128-90.152z" stroke="#88c0d0" stroke-width="18.75" transform="matrix(2.72579 0 0 2.72579 -1051.03 -945.408)"/></g><path d="m738.65 174.25c-7.078-11.327-27.863-16.573-39-9.2-24.067 15.933-77.883 97.467-105.4 104.8-27.445 7.314-66.733-33.281-59.7-60.8 7.183-28.108 87.167-83.275 102.8-107.85 7.266-11.421 2.256-32.081-9-39.6-12.725-8.5-44.445-11.113-67.35-11.4-24.986-.384-49.786 4.382-72.85 14-22.269 10.08-42.4 24.338-59.3 42-18.812 17.82-33.712 39.361-43.75 63.25-19.32 47.527-19.32 100.773 0 148.3-104.238 102.55-207.13 206.459-308.65 311.7-10.5 13.75-15.5 30.9-14.2 48.15 1.024 18.546 9.374 35.947 23.2 48.35 6.2 6.75 13.6 12.35 21.85 16.4 8.5 3.75 17.65 5.9 26.9 6.35 15.8-.3 30.95-6.3 42.7-16.85 77.4-72.85 225.7-222.5 309.95-310.2 22.85 9.7 47.4 14.7 72.2 14.65 50.414-.04 98.725-20.487 133.85-56.65 35.714-36.424 55.682-85.489 55.55-136.5.578-23.351-1.667-55.883-9.8-68.9zm-576.65 160.15c12.758-.008 57.917-5.975 76.55 0 15.959 5.117 23.725 35.492 35.25 35.85s33.792-22.433 33.9-33.7-27.708-27.892-33.25-33.9c-.486-.527-.024-1.434 0-2.15.475-14.1 4.208-65.067 2.85-82.45-.635-8.129-4.486-16.945-11-21.85-25.667-19.325-114.242-78.967-143-94.1-8.771-4.615-21.215-2.063-29.55 3.3-11.85 7.625-34.075 30.383-41.55 42.45-5.289 8.538-7.819 20.98-3.3 29.95 14.767 29.308 73.05 119.792 91.9 145.9 4.638 6.424 17.667 8.967 21.2 10.75.015.008-.017-.05 0-.05zm240.6 233.8c-11.136-11.478 89.963-112.362 101.1-101.05 27.5 27.933 155.3 159.25 155.3 159.25 27.009 28.386 27.009 73.564 0 101.95-20.085 20.62-50.907 26.888-77.45 15.75-8.296-3.68-15.737-9.043-21.85-15.75 0 0-130.575-132.808-157.1-160.15z" fill="#e5e9f0" transform="matrix(.421444 0 0 .421444 432.456 431.479)"/></svg>