<svg width="956" height="256" viewBox="0 0 956 256" fill="none" xmlns="http://www.w3.org/2000/svg">
<path d="M558.104 147.048H606.304V181.648H522.304V41.6483H558.104V147.048ZM687.598 81.6483L720.798 81.6483V181.648H687.598V172.448C680.798 180.448 671.331 184.448 659.198 184.448C645.865 184.448 634.665 179.448 625.598 169.448C616.665 159.315 612.198 146.715 612.198 131.648C612.198 116.582 616.665 104.048 625.598 94.0483C634.665 83.915 645.865 78.8483 659.198 78.8483C671.331 78.8483 680.798 82.8483 687.598 90.8483V81.6483ZM651.398 147.448C655.265 151.448 660.331 153.448 666.598 153.448C672.865 153.448 677.931 151.448 681.798 147.448C685.665 143.448 687.598 138.182 687.598 131.648C687.598 125.115 685.665 119.848 681.798 115.848C677.931 111.848 672.865 109.848 666.598 109.848C660.331 109.848 655.265 111.848 651.398 115.848C647.531 119.848 645.598 125.115 645.598 131.648C645.598 138.182 647.531 143.448 651.398 147.448ZM801.645 78.8483C814.978 78.8483 826.112 83.915 835.045 94.0483C844.112 104.048 848.645 116.582 848.645 131.648C848.645 146.715 844.112 159.315 835.045 169.448C826.112 179.448 814.978 184.448 801.645 184.448C789.512 184.448 780.045 180.448 773.245 172.448V181.648H740.045V41.6483H773.245V90.8483C780.045 82.8483 789.512 78.8483 801.645 78.8483ZM779.045 147.448C782.912 151.448 787.978 153.448 794.245 153.448C800.512 153.448 805.578 151.448 809.445 147.448C813.312 143.448 815.245 138.182 815.245 131.648C815.245 125.115 813.312 119.848 809.445 115.848C805.578 111.848 800.512 109.848 794.245 109.848C787.978 109.848 782.912 111.848 779.045 115.848C775.178 119.848 773.245 125.115 773.245 131.648C773.245 138.182 775.178 143.448 779.045 147.448ZM892.548 110.848C892.548 112.715 894.215 114.248 897.548 115.448C901.015 116.648 905.148 117.782 909.948 118.848C914.881 119.915 919.748 121.448 924.548 123.448C929.481 125.315 933.615 128.582 936.948 133.248C940.415 137.915 942.148 143.782 942.148 150.848C942.148 162.315 937.881 170.782 929.348 176.248C920.815 181.715 910.681 184.448 898.948 184.448C876.548 184.448 861.615 176.515 854.148 160.648L883.148 146.048C885.681 153.382 890.881 157.048 898.748 157.048C904.748 157.048 907.748 155.248 907.748 151.648C907.748 149.782 906.081 148.248 902.748 147.048C899.415 145.848 895.348 144.648 890.548 143.448C885.748 142.248 880.948 140.648 876.148 138.648C871.348 136.648 867.281 133.448 863.948 129.048C860.615 124.515 858.948 118.982 858.948 112.448C858.948 101.782 862.881 93.5149 870.748 87.6483C878.615 81.7816 888.081 78.8483 899.148 78.8483C918.881 78.8483 932.615 86.5816 940.348 102.048L912.348 114.648C909.415 108.915 905.281 106.048 899.948 106.048C895.015 106.048 892.548 107.648 892.548 110.848Z" fill="white"/>
<path d="M115.89 35.6482V48.8483H72.8903V175.648H58.8903L58.8903 48.8483H15.8903V35.6482H115.89ZM180.698 73.2482C192.831 73.2482 202.365 76.9816 209.298 84.4482C216.365 91.7816 219.898 101.715 219.898 114.248V175.648H206.698V114.248C206.698 105.315 204.298 98.3816 199.498 93.4483C194.831 88.5149 188.165 86.0483 179.498 86.0483C169.898 86.0483 162.098 89.1149 156.098 95.2483C150.098 101.248 147.098 110.582 147.098 123.248V175.648H133.898V35.6482H147.098V91.2483C154.565 79.2482 165.765 73.2482 180.698 73.2482ZM258.822 51.6483C256.955 53.5149 254.688 54.4483 252.022 54.4483C249.355 54.4483 247.088 53.5149 245.222 51.6483C243.355 49.7816 242.422 47.5149 242.422 44.8482C242.422 42.1816 243.355 39.9149 245.222 38.0482C247.088 36.1816 249.355 35.2483 252.022 35.2483C254.688 35.2483 256.955 36.1816 258.822 38.0482C260.688 39.9149 261.622 42.1816 261.622 44.8482C261.622 47.5149 260.688 49.7816 258.822 51.6483ZM245.422 175.648V75.6483H258.622V175.648H245.422ZM333.433 73.2482C345.566 73.2482 355.099 76.9816 362.033 84.4482C369.099 91.7816 372.633 101.715 372.633 114.248V175.648H359.433V114.248C359.433 105.315 357.033 98.3816 352.233 93.4483C347.566 88.5149 340.899 86.0483 332.233 86.0483C322.633 86.0483 314.833 89.1149 308.833 95.2483C302.833 101.248 299.833 110.582 299.833 123.248V175.648H286.633V75.6483H299.833V91.2483C307.299 79.2482 318.499 73.2482 333.433 73.2482ZM484.156 75.6483H497.356V171.648C497.356 186.048 492.423 197.382 482.556 205.648C472.689 213.915 460.889 218.048 447.156 218.048C423.689 218.048 407.889 209.915 399.756 193.648L411.356 187.048C417.356 199.182 429.289 205.248 447.156 205.248C458.623 205.248 467.623 202.182 474.156 196.048C480.823 190.048 484.156 181.915 484.156 171.648V156.048C474.956 170.715 461.489 178.048 443.756 178.048C429.489 178.048 417.289 172.982 407.156 162.848C397.156 152.715 392.156 140.315 392.156 125.648C392.156 110.982 397.156 98.5816 407.156 88.4483C417.289 78.3149 429.489 73.2482 443.756 73.2482C461.489 73.2482 474.956 80.5816 484.156 95.2483V75.6483ZM416.756 153.848C424.356 161.448 433.689 165.248 444.756 165.248C455.823 165.248 465.156 161.448 472.756 153.848C480.356 146.115 484.156 136.715 484.156 125.648C484.156 114.582 480.356 105.248 472.756 97.6483C465.156 89.9149 455.823 86.0483 444.756 86.0483C433.689 86.0483 424.356 89.9149 416.756 97.6483C409.156 105.248 405.356 114.582 405.356 125.648C405.356 136.715 409.156 146.115 416.756 153.848Z" fill="white"/>
</svg>
