<svg viewBox="0 0 1613 403" xmlns="http://www.w3.org/2000/svg" xml:space="preserve" style="fill-rule:evenodd;clip-rule:evenodd;stroke-linejoin:round;stroke-miterlimit:2"><path d="M359.64 142.141h2.892v2.076h-5.04v-8.4h2.148zm7.824-3.924h1.992v6h-1.992v-.552q-.612.72-1.704.72-1.2 0-2.01-.906t-.81-2.262.81-2.262 2.01-.906q1.092 0 1.704.72zm-2.172 3.948q.348.36.912.36t.912-.36.348-.948-.348-.948-.912-.36-.912.36-.348.948.348.948m9.012-4.116q1.2 0 2.01.906t.81 2.262-.81 2.262-2.01.906q-1.092 0-1.704-.72v.552h-1.992v-8.4h1.992v2.952q.612-.72 1.704-.72m-1.356 4.116q.348.36.912.36t.912-.36.348-.948-.348-.948-.912-.36-.912.36-.348.948.348.948m6.948-2.196q0 .168.306.276t.744.204.876.27.744.594.306 1.056q0 1.032-.768 1.524t-1.824.492q-2.016 0-2.688-1.428l1.74-.876q.228.66.936.66.54 0 .54-.324 0-.168-.3-.276a8 8 0 0 0-.732-.216 6 6 0 0 1-.864-.288 1.74 1.74 0 0 1-.732-.582q-.3-.402-.3-.99 0-.96.708-1.488t1.704-.528q1.776 0 2.472 1.392l-1.68.756q-.264-.516-.744-.516-.444 0-.444.288" style="fill:#4dc1ae;fill-rule:nonzero" transform="translate(-8429.46 -3458.69)scale(26.0166)"/><path d="M333.096 135.817v.792h-2.58v7.608h-.84v-7.608h-2.58v-.792zm3.888 2.256q1.092 0 1.722.666t.63 1.794v3.684h-.792v-3.684q0-.804-.426-1.248t-1.206-.444q-.864 0-1.404.546t-.54 1.686v3.144h-.792v-8.4h.792v3.336q.672-1.08 2.016-1.08m4.692-1.296a.56.56 0 0 1-.408.168.56.56 0 0 1-.408-.168.56.56 0 0 1-.168-.408q0-.24.168-.408a.56.56 0 0 1 .408-.168q.24 0 .408.168c.109.107.17.255.168.408q0 .24-.168.408m-.804 7.44v-6h.792v6zm5.28-6.144q1.092 0 1.722.666t.63 1.794v3.684h-.792v-3.684q0-.804-.426-1.248t-1.206-.444q-.864 0-1.404.546t-.54 1.686v3.144h-.792v-6h.792v.936q.672-1.08 2.016-1.08m9.048.144h.792v5.76q0 1.296-.888 2.04t-2.124.744q-2.112 0-2.844-1.464l.696-.396q.54 1.092 2.148 1.092 1.032 0 1.626-.546t.594-1.47v-.936q-.828 1.32-2.424 1.32a2.97 2.97 0 0 1-2.19-.912q-.906-.912-.906-2.232t.906-2.232a2.97 2.97 0 0 1 2.19-.912q1.596 0 2.424 1.32zm-4.044 4.692q.684.684 1.68.684t1.68-.69.684-1.686-.684-1.686a2.27 2.27 0 0 0-1.68-.69q-.996 0-1.68.69a2.3 2.3 0 0 0-.684 1.686q0 .996.684 1.692" style="fill-rule:nonzero" transform="translate(-8429.46 -3458.69)scale(26.0166)"/></svg>